<svg width="224" height="27" viewBox="0 0 224 27" fill="none" xmlns="http://www.w3.org/2000/svg">
<rect x="0.604202" y="0.699219" width="223" height="25.7617" rx="8.05053" fill="white"/>
<path d="M33.8561 12.1312L34.3391 14.7074H32.407L33.373 12.2117L33.534 11.7287L33.6145 11.3262C33.6145 11.4067 33.8561 12.1312 33.8561 12.1312ZM15.5814 17.8471L19.1236 9.07203H16.7084L14.5348 15.1099L14.2933 13.8218L13.4882 9.79657C13.4077 9.31354 13.0052 8.99152 12.3612 8.99152H8.73842L8.65791 9.15253C9.62398 9.31354 10.3485 9.63556 11.0731 10.1186L13.1662 17.9276H15.6619L15.5814 17.8471ZM20.9752 17.8471L22.4243 9.07203H20.1702L18.7211 18.0081H20.9752V17.8471ZM29.1063 15.0294C29.1063 14.0634 28.4622 13.2583 27.1741 12.5338C26.2081 12.1312 25.725 11.8092 25.725 11.4872C25.725 11.0042 26.2081 10.7626 27.1741 10.7626C27.7377 10.7626 28.3012 10.7626 28.7842 11.1652H29.1063L29.3478 9.15253C28.6232 8.83051 27.9792 8.75 27.2546 8.75C26.5301 8.75 25.886 8.91101 25.3225 9.15253C24.759 9.39405 24.2759 9.71607 23.8734 10.1991C23.5514 10.6821 23.3904 11.1652 23.3904 11.7287C23.3904 12.6948 24.0344 13.4998 25.4835 14.2244C26.2081 14.6269 26.6106 14.9489 26.6106 15.2709C26.6106 15.8345 26.1276 16.237 25.242 16.237C24.5175 16.237 23.7124 16.076 23.0684 15.754L22.7463 15.593L22.3438 17.5251C23.1489 17.8471 24.0344 18.0886 24.92 18.0886C25.9666 18.1691 26.9326 17.8471 27.7377 17.3641C28.7037 16.72 29.1063 15.915 29.1063 15.0294ZM37.1568 17.8471L35.3052 9.07203H33.534C32.9705 9.07203 32.568 9.23304 32.407 9.79657L28.9452 18.0081H31.3604L31.7629 16.72H34.8221L35.1442 18.0886H37.2373V17.8471H37.1568Z" fill="url(#paint0_linear_1_121)"/>
<g clip-path="url(#clip0_1_121)">
<mask id="mask0_1_121" style="mask-type:luminance" maskUnits="userSpaceOnUse" x="45" y="8" width="20" height="13">
<path d="M64.7697 8.10938H45.4484V20.0242H64.7697V8.10938Z" fill="white"/>
</mask>
<g mask="url(#mask0_1_121)">
<path d="M51.4058 20.0242C54.696 20.0242 57.3632 17.3569 57.3632 14.0668C57.3632 10.7766 54.696 8.10938 51.4058 8.10938C48.1157 8.10938 45.4484 10.7766 45.4484 14.0668C45.4484 17.3569 48.1157 20.0242 51.4058 20.0242Z" fill="#DD3D31"/>
<path d="M58.8091 20.0242C62.0993 20.0242 64.7665 17.3569 64.7665 14.0668C64.7665 10.7766 62.0993 8.10938 58.8091 8.10938C55.519 8.10938 52.8518 10.7766 52.8518 14.0668C52.8518 17.3569 55.519 20.0242 58.8091 20.0242Z" fill="#EEB046"/>
<path fill-rule="evenodd" clip-rule="evenodd" d="M55.1083 18.8146C57.6844 16.802 58.1675 13.0182 56.1548 10.4421C55.8328 10.0395 55.5108 9.71753 55.1083 9.39551C52.5321 11.4081 52.0491 15.1919 54.0617 17.7681C54.3837 18.1706 54.7057 18.4926 55.1083 18.8146Z" fill="#EF7D2F"/>
</g>
</g>
<mask id="mask1_1_121" style="mask-type:luminance" maskUnits="userSpaceOnUse" x="72" y="8" width="44" height="12">
<path d="M115.081 8.42969H72.8156V19.7004H115.081V8.42969Z" fill="white"/>
</mask>
<g mask="url(#mask1_1_121)">
<path d="M78.1594 8.52148H74.9191C74.6977 8.52148 74.5065 8.68249 74.4763 8.90387L73.1681 17.1959C73.1379 17.3569 73.2688 17.5078 73.4398 17.5078H74.9896C75.2109 17.5078 75.4021 17.3469 75.4323 17.1255L75.7845 14.8915C75.8147 14.6701 76.0059 14.5091 76.2273 14.5091H77.2437C79.3771 14.5091 80.6048 13.4826 80.9268 11.4297C81.0677 10.5341 80.9369 9.82969 80.5142 9.3366C80.0513 8.81331 79.2362 8.52148 78.1594 8.52148ZM78.5318 11.5606C78.3506 12.7178 77.4651 12.7178 76.6097 12.7178H76.1166L76.4588 10.5542C76.4789 10.4234 76.5896 10.3228 76.7204 10.3228H76.9418C77.5255 10.3228 78.0789 10.3228 78.3607 10.6549C78.5418 10.8561 78.5922 11.148 78.5318 11.5606Z" fill="#283B82"/>
<path d="M87.8317 11.5191H86.282C86.1512 11.5191 86.0405 11.6198 86.0203 11.7506L85.9499 12.1833L85.8392 12.0223C85.5071 11.5392 84.7524 11.3682 84.0077 11.3682C82.297 11.3682 80.8378 12.6663 80.546 14.4877C80.395 15.3934 80.6064 16.2589 81.1196 16.8728C81.5925 17.4262 82.2668 17.6576 83.0718 17.6576C84.4505 17.6576 85.2153 16.7721 85.2153 16.7721L85.1448 17.2048C85.1147 17.3658 85.2455 17.5168 85.4065 17.5168H86.8053C87.0267 17.5168 87.2178 17.3558 87.248 17.1344L88.0833 11.8311C88.1235 11.6701 87.9927 11.5191 87.8317 11.5191ZM85.6681 14.5381C85.5172 15.4236 84.8128 16.0174 83.9171 16.0174C83.4643 16.0174 83.1121 15.8765 82.8806 15.5947C82.6492 15.323 82.5687 14.9406 82.6391 14.5079C82.78 13.6324 83.4945 13.0185 84.38 13.0185C84.8228 13.0185 85.175 13.1695 85.4165 13.4412C85.6379 13.7129 85.7386 14.1053 85.6681 14.5381Z" fill="#283B82"/>
<path d="M96.0823 11.5186H94.5225C94.3716 11.5186 94.2307 11.589 94.1502 11.7198L92.0068 14.8797L91.1011 11.8406C91.0407 11.6494 90.8696 11.5186 90.6684 11.5186H89.1388C88.9576 11.5186 88.8268 11.6997 88.8872 11.8708L90.5979 16.9023L88.9878 19.1766C88.857 19.3577 88.9878 19.5993 89.2092 19.5993H90.769C90.9199 19.5993 91.0508 19.5288 91.1413 19.4081L96.3239 11.9312C96.4245 11.7601 96.2937 11.5186 96.0823 11.5186Z" fill="#283B82"/>
<path d="M101.237 8.52148H97.9963C97.7749 8.52148 97.5837 8.68249 97.5535 8.90387L96.2453 17.1959C96.2151 17.3569 96.3459 17.5078 96.5069 17.5078H98.1774C98.3284 17.5078 98.4592 17.3971 98.4894 17.2462L98.8617 14.8915C98.8919 14.6701 99.0831 14.5091 99.3045 14.5091H100.331C102.464 14.5091 103.692 13.4826 104.014 11.4297C104.155 10.5341 104.024 9.82969 103.601 9.3366C103.139 8.81331 102.323 8.52148 101.237 8.52148ZM101.609 11.5606C101.428 12.7178 100.542 12.7178 99.6869 12.7178H99.2039L99.546 10.5542C99.5661 10.4234 99.6768 10.3228 99.8076 10.3228H100.029C100.613 10.3228 101.166 10.3228 101.448 10.6549C101.619 10.8561 101.669 11.148 101.609 11.5606Z" fill="#469BDB"/>
<path d="M110.907 11.5191H109.358C109.227 11.5191 109.116 11.6198 109.096 11.7506L109.026 12.1833L108.915 12.0223C108.583 11.5392 107.828 11.3682 107.083 11.3682C105.373 11.3682 103.913 12.6663 103.622 14.4877C103.471 15.3934 103.682 16.2589 104.195 16.8728C104.668 17.4262 105.342 17.6576 106.148 17.6576C107.526 17.6576 108.291 16.7721 108.291 16.7721L108.221 17.2048C108.19 17.3658 108.321 17.5168 108.492 17.5168H109.891C110.112 17.5168 110.304 17.3558 110.334 17.1344L111.169 11.8311C111.199 11.6701 111.068 11.5191 110.907 11.5191ZM108.744 14.5381C108.593 15.4236 107.888 16.0174 106.993 16.0174C106.54 16.0174 106.188 15.8765 105.956 15.5947C105.725 15.323 105.644 14.9406 105.715 14.5079C105.856 13.6324 106.57 13.0185 107.456 13.0185C107.899 13.0185 108.251 13.1695 108.492 13.4412C108.724 13.7129 108.814 14.1053 108.744 14.5381Z" fill="#469BDB"/>
<path d="M112.727 8.75235L111.399 17.2054C111.369 17.3664 111.5 17.5174 111.661 17.5174H112.999C113.221 17.5174 113.412 17.3564 113.442 17.135L114.75 8.84293C114.78 8.68191 114.65 8.53097 114.488 8.53097H112.989C112.868 8.5209 112.758 8.62153 112.727 8.75235Z" fill="#469BDB"/>
</g>
<path d="M147.126 10.5225C147.85 10.5225 148.414 9.95892 148.414 9.23437C148.414 8.50983 147.85 7.94629 147.126 7.94629C146.401 7.94629 145.838 8.50983 145.838 9.23437C145.757 9.95892 146.321 10.5225 147.126 10.5225C147.126 10.603 147.126 10.603 147.126 10.5225ZM136.982 11.247C136.901 11.408 136.499 12.6156 135.452 13.9037V8.50983L132.715 9.07336V18.8145H135.452V15.8358C136.257 17.0434 136.66 18.8145 136.66 18.8145H139.961C139.639 17.4459 138.19 14.9502 138.19 14.9502C139.075 13.8232 139.719 12.6156 140.122 11.3275L136.982 11.247ZM144.227 11.1665C141.732 11.247 140.524 12.3741 140.524 14.5477V18.8145H143.261V15.3528C143.261 14.0647 143.422 13.5012 145.033 13.4206V11.247C144.71 11.1665 144.227 11.1665 144.227 11.1665ZM128.046 12.3741C127.724 12.3741 126.919 12.2936 126.919 11.569C126.919 10.6835 128.046 10.6835 128.448 10.6835C129.173 10.6835 130.139 10.925 130.864 11.086C131.105 11.1665 131.347 11.247 131.588 11.3275V9.07336H131.508C130.703 8.75134 129.737 8.50983 127.965 8.50983C124.987 8.50983 123.94 10.2809 123.94 11.8105C123.94 12.6961 124.343 14.7087 127.804 14.9502C128.126 14.9502 128.851 15.0308 128.851 15.7553C128.851 16.3189 128.207 16.7214 127.16 16.7214C125.953 16.7214 124.826 16.3994 124.182 16.1578V18.573C125.228 18.8145 126.355 18.9755 127.724 18.9755C130.703 18.9755 131.991 17.2849 131.991 15.6748C131.991 13.7427 130.542 12.5351 128.046 12.3741ZM145.757 18.8145H148.414V11.247H145.757V18.8145ZM153.486 8.99286V18.8145H156.142V8.50983L153.486 8.99286ZM149.541 8.99286L152.197 8.50983V18.8145H149.541V8.99286Z" fill="#862565"/>
<g clip-path="url(#clip1_1_121)">
<mask id="mask2_1_121" style="mask-type:luminance" maskUnits="userSpaceOnUse" x="164" y="8" width="51" height="12">
<path d="M214.911 8.42969H164.434V19.7004H214.911V8.42969Z" fill="white"/>
</mask>
<g mask="url(#mask2_1_121)">
<path d="M173.37 8.42969H170.955C170.955 10.4423 169.989 12.2939 168.379 13.5015L167.413 14.3066L171.197 19.4589H174.336L170.794 14.7091C172.485 13.099 173.37 10.8448 173.37 8.42969Z" fill="black"/>
<path d="M167.09 8.42969H164.594V19.4589H167.09V8.42969Z" fill="black"/>
<path d="M177.475 8.42969H175.06V19.4589H177.475V8.42969Z" fill="black"/>
<path d="M198.326 11.6514C197.441 11.6514 196.555 11.8929 195.992 12.6979V11.8929H193.737V19.4604H196.072V15.4351C196.072 14.308 196.877 13.7445 197.763 13.7445C198.729 13.7445 199.373 14.308 199.373 15.4351V19.4604H201.627V14.6301C201.547 12.8589 200.178 11.6514 198.326 11.6514Z" fill="black"/>
<path d="M184.64 11.8929V12.3759C183.996 11.8929 183.191 11.6514 182.386 11.6514C180.132 11.6514 178.361 13.4225 178.361 15.6766C178.361 17.9308 180.132 19.7019 182.386 19.7019C183.191 19.7019 183.996 19.4604 184.64 18.9773V19.4604H186.894V11.8929H184.64ZM182.547 17.6087C181.42 17.6087 180.454 16.7232 180.454 15.6766C180.454 14.6301 181.339 13.7445 182.547 13.7445C183.754 13.7445 184.64 14.6301 184.64 15.6766C184.64 16.7232 183.674 17.6087 182.547 17.6087Z" fill="black"/>
<path d="M190.436 12.8586V11.8926H188.102V19.4601H190.436V15.9178C190.436 14.7103 191.724 14.0662 192.61 14.0662V11.8926C191.724 11.8926 190.919 12.2146 190.436 12.8586Z" fill="black"/>
<path d="M208.631 11.8929V12.3759C207.987 11.8929 207.262 11.6514 206.377 11.6514C204.122 11.6514 202.351 13.4225 202.351 15.6766C202.351 17.9308 204.122 19.7019 206.377 19.7019C207.182 19.7019 207.987 19.4604 208.631 18.9773V19.4604H210.885V11.8929H208.631ZM206.618 17.6087C205.491 17.6087 204.525 16.7232 204.525 15.6766C204.525 14.6301 205.41 13.7445 206.618 13.7445C207.745 13.7445 208.711 14.6301 208.711 15.6766C208.631 16.7232 207.745 17.6087 206.618 17.6087Z" fill="black"/>
<path d="M212.657 12.0538C212.657 11.9732 212.577 11.8926 212.496 11.8926H212.254V12.4569H212.335V12.2957H212.415L212.577 12.4569H212.657L212.577 12.2151C212.657 12.2151 212.657 12.1344 212.657 12.0538ZM212.496 12.1344H212.415V11.9732H212.496C212.577 11.9732 212.577 11.9732 212.577 12.0538C212.577 12.1344 212.577 12.1344 212.496 12.1344Z" fill="black"/>
<path d="M212.497 11.6514C212.174 11.6514 211.932 11.8932 211.932 12.2157C211.932 12.5382 212.174 12.7801 212.497 12.7801C212.819 12.7801 213.061 12.5382 213.061 12.2157C213.061 11.8932 212.739 11.6514 212.497 11.6514ZM212.497 12.6188C212.255 12.6188 212.094 12.4576 212.094 12.1351C212.094 11.8932 212.255 11.6514 212.497 11.6514C212.739 11.6514 212.9 11.8126 212.9 12.1351C212.9 12.4576 212.658 12.6188 212.497 12.6188Z" fill="black"/>
<path d="M213.381 16.8037C212.576 16.8037 211.932 17.4478 211.932 18.2528C211.932 19.0579 212.576 19.7019 213.381 19.7019C214.186 19.7019 214.83 19.0579 214.83 18.2528C214.83 17.3672 214.186 16.8037 213.381 16.8037Z" fill="black"/>
</g>
</g>
<defs>
<linearGradient id="paint0_linear_1_121" x1="9.68991" y1="13.4261" x2="36.7904" y2="13.4261" gradientUnits="userSpaceOnUse">
<stop stop-color="#2C3572"/>
<stop offset="1" stop-color="#3C62AB"/>
</linearGradient>
<clipPath id="clip0_1_121">
<rect width="19.3213" height="12.0758" fill="white" transform="translate(45.4484 7.94629)"/>
</clipPath>
<clipPath id="clip1_1_121">
<rect width="51.5234" height="12.0758" fill="white" transform="translate(164.03 7.94629)"/>
</clipPath>
</defs>
</svg>
